<svg width="720" height="762" viewBox="0 0 720 762" fill="none" xmlns="http://www.w3.org/2000/svg">
<path d="M0 199V0H1V1.99L100 199H98.88L1 4.22V199H0ZM100 2H99.88L98.88 0H100V2Z" fill="#F0B3A8"/>
<path d="M100 199V0H101V1.99L200 199H198.88L101 4.22V199H100ZM200 2H199.88L198.88 0H200V2Z" fill="#F0B3A8"/>
<path d="M200 199V0H201V1.99L300 199H298.88L201 4.22V199H200ZM300 2H299.88L298.88 0H300V2Z" fill="#F0B3A8"/>
<path d="M300 199V0H301V1.99L400 199H398.88L301 4.22V199H300ZM400 2H399.88L398.88 0H400V2Z" fill="#F0B3A8"/>
<path d="M400 199V0H401V1.99L500 199H498.88L401 4.22V199H400ZM500 2H499.88L498.88 0H500V2Z" fill="#F0B3A8"/>
<path d="M500 199V0H501V1.99L600 199H598.88L501 4.22V199H500ZM600 2H599.88L598.88 0H600V2Z" fill="#F0B3A8"/>
<path d="M600 199V0H601V1.99L700 199H698.88L601 4.22V199H600ZM700 2H699.88L698.88 0H700V2Z" fill="#F0B3A8"/>
<path d="M700 199V0H701V1.99L800 199H798.88L701 4.22V199H700ZM800 2H799.88L798.88 0H800V2Z" fill="#F0B3A8"/>
<path d="M0 398V199H1V200.99L100 398H98.88L1 203.22V398H0ZM100 201H99.88L98.88 199H100V201Z" fill="#F0B3A8"/>
<path d="M100 398V199H101V200.99L200 398H198.88L101 203.22V398H100ZM200 201H199.88L198.88 199H200V201Z" fill="#F0B3A8"/>
<path d="M200 398V199H201V200.99L300 398H298.88L201 203.22V398H200ZM300 201H299.88L298.88 199H300V201Z" fill="#F0B3A8"/>
<path d="M300 398V199H301V200.99L400 398H398.88L301 203.22V398H300ZM400 201H399.88L398.88 199H400V201Z" fill="#F0B3A8"/>
<path d="M400 398V199H401V200.99L500 398H498.88L401 203.22V398H400ZM500 201H499.88L498.88 199H500V201Z" fill="#F0B3A8"/>
<path d="M500 398V199H501V200.99L600 398H598.88L501 203.22V398H500ZM600 201H599.88L598.88 199H600V201Z" fill="#F0B3A8"/>
<path d="M600 398V199H601V200.99L700 398H698.88L601 203.22V398H600ZM700 201H699.88L698.88 199H700V201Z" fill="#F0B3A8"/>
<path d="M700 398V199H701V200.99L800 398H798.88L701 203.22V398H700ZM800 201H799.88L798.88 199H800V201Z" fill="#F0B3A8"/>
<path d="M0 597V398H1V399.99L100 597H98.88L1 402.22V597H0ZM100 400H99.88L98.88 398H100V400Z" fill="#F0B3A8"/>
<path d="M100 597V398H101V399.99L200 597H198.88L101 402.22V597H100ZM200 400H199.88L198.88 398H200V400Z" fill="#F0B3A8"/>
<path d="M200 597V398H201V399.99L300 597H298.88L201 402.22V597H200ZM300 400H299.88L298.88 398H300V400Z" fill="#F0B3A8"/>
<path d="M300 597V398H301V399.99L400 597H398.88L301 402.22V597H300ZM400 400H399.88L398.88 398H400V400Z" fill="#F0B3A8"/>
<path d="M400 597V398H401V399.99L500 597H498.88L401 402.22V597H400ZM500 400H499.88L498.88 398H500V400Z" fill="#F0B3A8"/>
<path d="M500 597V398H501V399.99L600 597H598.88L501 402.22V597H500ZM600 400H599.88L598.88 398H600V400Z" fill="#F0B3A8"/>
<path d="M600 597V398H601V399.99L700 597H698.88L601 402.22V597H600ZM700 400H699.88L698.88 398H700V400Z" fill="#F0B3A8"/>
<path d="M700 597V398H701V399.99L800 597H798.88L701 402.22V597H700ZM800 400H799.88L798.88 398H800V400Z" fill="#F0B3A8"/>
<path d="M0 796V597H1V598.99L100 796H98.88L1 601.22V796H0ZM100 599H99.88L98.88 597H100V599Z" fill="#F0B3A8"/>
<path d="M100 796V597H101V598.99L200 796H198.88L101 601.22V796H100ZM200 599H199.88L198.88 597H200V599Z" fill="#F0B3A8"/>
<path d="M200 796V597H201V598.99L300 796H298.88L201 601.22V796H200ZM300 599H299.88L298.88 597H300V599Z" fill="#F0B3A8"/>
<path d="M300 796V597H301V598.99L400 796H398.88L301 601.22V796H300ZM400 599H399.88L398.88 597H400V599Z" fill="#F0B3A8"/>
<path d="M400 796V597H401V598.99L500 796H498.88L401 601.22V796H400ZM500 599H499.88L498.88 597H500V599Z" fill="#F0B3A8"/>
<path d="M500 796V597H501V598.99L600 796H598.88L501 601.22V796H500ZM600 599H599.88L598.88 597H600V599Z" fill="#F0B3A8"/>
<path d="M600 796V597H601V598.99L700 796H698.88L601 601.22V796H600ZM700 599H699.88L698.88 597H700V599Z" fill="#F0B3A8"/>
<path d="M700 796V597H701V598.99L800 796H798.88L701 601.22V796H700ZM800 599H799.88L798.88 597H800V599Z" fill="#F0B3A8"/>
</svg>
