<svg width="201" height="64" viewBox="0 0 201 64" fill="none" xmlns="http://www.w3.org/2000/svg">
<g clip-path="url(#clip0)">
<path d="M26.9277 22.8964C26.1466 22.1562 25.2866 21.5037 24.3631 20.9507C23.4855 20.4074 22.2032 19.6649 20.5163 18.7234C18.7468 17.7476 17.3448 16.9213 16.3105 16.2443C15.3183 15.6052 14.4496 14.7928 13.7459 13.8462C13.0741 12.9408 12.7169 11.841 12.7287 10.7143C12.7287 9.0644 13.2658 7.81418 14.34 6.96364C15.4143 6.11309 16.8932 5.6864 18.7767 5.68355C20.2012 5.67523 21.6128 5.95387 22.927 6.50281C23.2091 6.61802 23.4783 6.74176 23.7348 6.86977C23.8203 6.91566 23.9088 6.95558 23.9998 6.98924C24.4848 7.23443 25.0314 7.33172 25.5714 7.26897C26.1114 7.20622 26.6209 6.9862 27.0365 6.63635C27.4522 6.2865 27.7555 5.82228 27.9086 5.30154C28.0618 4.78081 28.0581 4.22659 27.8979 3.70795C27.8125 3.26053 27.624 2.83908 27.3473 2.47694C27.0706 2.1148 26.7133 1.8219 26.3036 1.62142C24.0443 0.514144 21.5539 -0.0415884 19.0374 -2.62968e-05C15.4214 -2.62968e-05 12.4295 0.950081 10.0615 2.8503C7.69361 4.75051 6.50253 7.48563 6.48828 11.0556C6.48828 15.3795 8.3148 18.7632 11.9678 21.2067C13.3925 22.0755 14.8636 22.8661 16.3746 23.5749C18.1812 24.4738 19.576 25.2347 20.559 25.8577C21.5294 26.4726 22.3725 27.2679 23.0424 28.2003C23.7303 29.172 24.0869 30.3389 24.0596 31.5285C24.0883 32.2819 23.9306 33.0307 23.6003 33.7087C23.27 34.3867 22.7775 34.973 22.1662 35.4157C20.9038 36.3544 19.2754 36.8238 17.2807 36.8238C15.6056 36.7944 13.9571 36.3997 12.4508 35.6674C11.9849 35.4541 11.5532 35.2407 11.1686 35.0316C10.4895 34.6719 9.69634 34.592 8.95895 34.8089C8.22157 35.0258 7.59859 35.5224 7.22345 36.1923L7.07385 36.4653C6.87599 36.811 6.75085 37.1934 6.70608 37.589C6.66132 37.9846 6.69786 38.3852 6.81349 38.7662C6.92911 39.1472 7.12139 39.5007 7.37855 39.805C7.63571 40.1093 7.95235 40.3581 8.3091 40.536C9.04051 40.8878 9.79111 41.1983 10.5573 41.4662C12.7134 42.2447 14.9879 42.646 17.2807 42.6524C19.6395 42.6928 21.9798 42.2302 24.1451 41.2955C26.086 40.4554 27.7361 39.0634 28.8895 37.2931C30.0786 35.3634 30.6731 33.1272 30.5992 30.8628C30.6159 29.3187 30.2674 27.7925 29.582 26.4081C28.9292 25.0796 28.0283 23.8877 26.9277 22.8964V22.8964Z" fill="white"/>
<path d="M3.08587 30.5813C2.47516 30.5805 1.87792 30.7605 1.36978 31.0987C0.861636 31.4369 0.465433 31.918 0.231332 32.4811C-0.00276906 33.0442 -0.0642422 33.664 0.0546953 34.262C0.173633 34.86 0.467633 35.4093 0.899474 35.8405C1.33132 36.2716 1.88158 36.5651 2.4806 36.6838C3.07962 36.8025 3.70047 36.7412 4.26453 36.5075C4.8286 36.2738 5.31052 35.8782 5.64929 35.3709C5.98806 34.8637 6.16844 34.2675 6.16759 33.6578C6.16759 32.8418 5.84291 32.0593 5.26498 31.4824C4.68704 30.9054 3.9032 30.5813 3.08587 30.5813V30.5813Z" fill="white"/>
<path d="M35.3219 8.14995C35.3227 7.54046 35.1425 6.94441 34.8039 6.43722C34.4653 5.93003 33.9836 5.5345 33.4198 5.30068C32.856 5.06685 32.2354 5.00523 31.6365 5.12362C31.0376 5.24201 30.4873 5.53508 30.0553 5.96576C29.6233 6.39644 29.3289 6.94537 29.2095 7.54309C29.0901 8.14081 29.151 8.76046 29.3844 9.32364C29.6178 9.88682 30.0134 10.3682 30.521 10.7069C31.0285 11.0456 31.6254 11.2264 32.2359 11.2264C33.0536 11.2264 33.8379 10.9024 34.4165 10.3256C34.9951 9.74877 35.3208 8.96627 35.3219 8.14995V8.14995Z" fill="white"/>
<path d="M59.7367 16.3425C58.3138 14.9163 56.6328 13.7724 54.7829 12.9716C52.8727 12.1412 50.8098 11.7183 48.7263 11.7299C46.6203 11.7139 44.5342 12.1368 42.6013 12.9716C40.7384 13.7672 39.0453 14.9115 37.6133 16.3425C36.1913 17.7677 35.0592 19.4544 34.2794 21.3092C33.4653 23.2356 33.0537 25.3075 33.0698 27.3982V60.9535C33.0698 61.7581 33.39 62.5298 33.9599 63.0987C34.5298 63.6677 35.3028 63.9873 36.1088 63.9873C36.9148 63.9873 37.6877 63.6677 38.2577 63.0987C38.8276 62.5298 39.1477 61.7581 39.1477 60.9535V39.7595C40.4979 40.79 41.9986 41.6074 43.5972 42.1832C45.241 42.7791 46.9775 43.0796 48.7263 43.0707C50.8107 43.0783 52.8736 42.651 54.7829 41.8162C58.5191 40.1976 61.4945 37.215 63.1006 33.4786C63.9186 31.5517 64.3402 29.4803 64.3402 27.3875C64.3402 25.2947 63.9186 23.2233 63.1006 21.2964C62.3008 19.4489 61.1596 17.7683 59.7367 16.3425ZM57.497 31.0934C56.5098 33.3858 54.6849 35.2167 52.3936 36.2137C51.232 36.7263 49.975 36.988 48.7049 36.9817C47.4392 36.9894 46.1853 36.7381 45.0205 36.2436C43.8835 35.7691 42.8509 35.0761 41.9816 34.204C41.1089 33.3228 40.4087 32.2866 39.9171 31.1488C39.405 29.9844 39.1443 28.7253 39.152 27.4536V27.3939C39.1455 26.1253 39.3955 24.8685 39.8872 23.6987C40.3623 22.563 41.0532 21.5299 41.9217 20.6564C42.7972 19.7842 43.8278 19.0824 44.9607 18.5869C46.1474 18.0679 47.4308 17.8062 48.7263 17.8189C49.9966 17.8141 51.2536 18.0773 52.415 18.5912C54.7063 19.5882 56.5312 21.4191 57.5184 23.7115C58.0232 24.8783 58.2836 26.1358 58.2836 27.4067C58.2836 28.6776 58.0232 29.9351 57.5184 31.1019L57.497 31.0934Z" fill="white"/>
<path d="M87.8309 14.1066C86.7572 13.3881 85.5854 12.8277 84.3517 12.4425C81.7755 11.6516 79.0206 11.6516 76.4444 12.4425C75.2107 12.8277 74.0389 13.3881 72.9652 14.1066V11.8494H66.8872V39.7937C66.8872 40.5983 67.2074 41.37 67.7773 41.9389C68.3472 42.5079 69.1202 42.8275 69.9262 42.8275C70.7322 42.8275 71.5051 42.5079 72.0751 41.9389C72.645 41.37 72.9652 40.5983 72.9652 39.7937V25.333C72.9596 24.3411 73.1605 23.3589 73.555 22.4485C74.3134 20.6729 75.73 19.2587 77.5087 18.5016C78.5307 18.0663 79.638 17.8668 80.748 17.9177C81.858 17.9687 82.9423 18.2689 83.92 18.796C84.9726 19.3598 85.873 20.1694 86.5444 21.1556L87.8267 20.0932L91.246 17.3794C90.3201 16.0871 89.1622 14.9774 87.8309 14.1066V14.1066Z" fill="white"/>
<path d="M107.283 33.0221L98.1916 11.9092H91.293L103.688 40.6599L94.8406 59.379C94.6047 59.8651 94.495 60.4026 94.5217 60.9421C94.5483 61.4815 94.7104 62.0057 94.993 62.4663C95.2756 62.9268 95.6697 63.3091 96.139 63.5779C96.6083 63.8467 97.1377 63.9933 97.6787 64.0044C98.2788 64.0027 98.8659 63.8299 99.3709 63.5064C99.876 63.1828 100.278 62.722 100.53 62.1781L106.984 48.4855L110.583 40.8476L124.26 11.9134H117.246L107.283 33.0221Z" fill="white"/>
<path d="M147.935 14.0511C145.705 12.5998 143.101 11.8271 140.438 11.8271C137.776 11.8271 135.172 12.5998 132.941 14.0511L132.894 11.828H126.816V39.9301C126.816 40.7347 127.137 41.5064 127.706 42.0753C128.276 42.6443 129.049 42.9639 129.855 42.9639C130.661 42.9639 131.434 42.6443 132.004 42.0753C132.574 41.5064 132.894 40.7347 132.894 39.9301V25.3414C132.891 24.3456 133.091 23.3595 133.484 22.4442C133.867 21.5561 134.41 20.7461 135.087 20.0547C135.771 19.3645 136.586 18.8176 137.485 18.446C138.413 18.0566 139.41 17.8578 140.417 17.8615C141.414 17.8565 142.402 18.0554 143.319 18.446C144.212 18.8282 145.025 19.3738 145.717 20.0547C146.409 20.7419 146.962 21.5561 147.346 22.4527C147.739 23.368 147.939 24.3541 147.935 25.3499V39.9301C147.935 40.7347 148.256 41.5064 148.825 42.0753C149.395 42.6443 150.168 42.9639 150.974 42.9639C151.78 42.9639 152.553 42.6443 153.123 42.0753C153.693 41.5064 154.013 40.7347 154.013 39.9301V25.3414C154.033 23.082 153.469 20.8555 152.376 18.877C151.309 16.9334 149.785 15.2774 147.935 14.0511V14.0511Z" fill="white"/>
<path d="M168.405 0.123779H162.344V11.7128H156.621V16.4747H162.344V40.5361C162.344 41.8503 163.703 42.917 165.383 42.917C167.063 42.917 168.405 41.846 168.405 40.5361V16.4747H174.068V11.7128H168.405V0.123779Z" fill="white"/>
<path d="M197.576 14.1066C196.502 13.3881 195.331 12.8277 194.097 12.4425C191.521 11.6516 188.766 11.6516 186.19 12.4425C184.956 12.8277 183.784 13.3881 182.71 14.1066V11.8494H176.632V39.7937C176.632 40.5983 176.952 41.37 177.522 41.9389C178.092 42.5079 178.865 42.8275 179.671 42.8275C180.477 42.8275 181.25 42.5079 181.82 41.9389C182.39 41.37 182.71 40.5983 182.71 39.7937V25.333C182.705 24.3411 182.906 23.3589 183.3 22.4485C184.059 20.6729 185.475 19.2587 187.254 18.5016C188.276 18.0663 189.383 17.8668 190.493 17.9177C191.603 17.9687 192.687 18.2689 193.665 18.796C194.718 19.3598 195.618 20.1694 196.29 21.1556L197.572 20.0932L200.991 17.3794C200.065 16.0871 198.907 14.9774 197.576 14.1066V14.1066Z" fill="white"/>
</g>
<defs>
<clipPath id="clip0">
<rect width="201" height="64" fill="white"/>
</clipPath>
</defs>
</svg>
